<svg width="30" height="30" viewBox="0 0 30 30" fill="none" xmlns="http://www.w3.org/2000/svg">
<path d="M6.25 6.25H13.75C14.4375 6.25 15 5.6875 15 5C15 4.3125 14.4375 3.75 13.75 3.75H6.25C4.875 3.75 3.75 4.875 3.75 6.25V23.75C3.75 25.125 4.875 26.25 6.25 26.25H13.75C14.4375 26.25 15 25.6875 15 25C15 24.3125 14.4375 23.75 13.75 23.75H6.25V6.25Z" fill="#303757"/>
<path d="M6.25 6.25H13.75C14.4375 6.25 15 5.6875 15 5C15 4.3125 14.4375 3.75 13.75 3.75H6.25C4.875 3.75 3.75 4.875 3.75 6.25V23.75C3.75 25.125 4.875 26.25 6.25 26.25H13.75C14.4375 26.25 15 25.6875 15 25C15 24.3125 14.4375 23.75 13.75 23.75H6.25V6.25Z" fill="black" fill-opacity="0.2"/>
<path d="M25.8125 14.5627L22.325 11.0752C21.925 10.6752 21.25 10.9502 21.25 11.5127V13.7502H12.5C11.8125 13.7502 11.25 14.3127 11.25 15.0002C11.25 15.6877 11.8125 16.2502 12.5 16.2502H21.25V18.4877C21.25 19.0502 21.925 19.3252 22.3125 18.9252L25.8 15.4377C26.05 15.2002 26.05 14.8002 25.8125 14.5627Z" fill="#303757"/>
<path d="M25.8125 14.5627L22.325 11.0752C21.925 10.6752 21.25 10.9502 21.25 11.5127V13.7502H12.5C11.8125 13.7502 11.25 14.3127 11.25 15.0002C11.25 15.6877 11.8125 16.2502 12.5 16.2502H21.25V18.4877C21.25 19.0502 21.925 19.3252 22.3125 18.9252L25.8 15.4377C26.05 15.2002 26.05 14.8002 25.8125 14.5627Z" fill="black" fill-opacity="0.2"/>
</svg>
