<svg width="32" height="32" viewBox="0 0 32 32" fill="none" xmlns="http://www.w3.org/2000/svg">
<circle cx="16" cy="16" r="16" fill="#2F6971"/>
<mask id="mask0_135_8662" style="mask-type:alpha" maskUnits="userSpaceOnUse" x="8" y="4" width="16" height="24">
<path d="M8.67096 15.1458L14.5011 6.24785C15.0011 5.48463 15.2512 5.10304 15.5676 4.9706C15.8442 4.85485 16.1557 4.85485 16.4323 4.9706C16.7488 5.10304 16.9988 5.48463 17.4989 6.24785L23.329 15.1458C23.5643 15.505 23.682 15.6846 23.7271 15.8782C23.7669 16.0493 23.766 16.2272 23.7243 16.3979C23.6772 16.5909 23.5576 16.7693 23.3184 17.126L17.4883 25.8206C16.9903 26.5633 16.7413 26.9346 16.4279 27.0642C16.1538 27.1775 15.8461 27.1775 15.572 27.0642C15.2586 26.9346 15.0096 26.5633 14.5116 25.8206L8.68149 17.126C8.44234 16.7693 8.32275 16.5909 8.2756 16.3979C8.23396 16.2272 8.23301 16.0493 8.27283 15.8782C8.31791 15.6846 8.43559 15.505 8.67096 15.1458Z" fill="#C4C4C4"/>
</mask>
<g mask="url(#mask0_135_8662)">
<path d="M7.31995 16.14L15.9999 3.95996L12.0799 14.88L7.31995 16.14Z" fill="#3FA5F1"/>
<path d="M15.58 3.95996L12.08 14.88L9.69995 15.51L15.58 3.95996Z" fill="#70C1FF"/>
<path d="M24.68 16.14L16 3.95996L19.92 14.88L24.68 16.14Z" fill="#3FA5F1"/>
<path d="M7.31995 16.1399L15.9999 28.1799L12.0799 14.8799L7.31995 16.1399Z" fill="#2B96E4"/>
<path d="M24.68 16.1399L16 28.1799L19.92 14.8799L24.68 16.1399Z" fill="#2B96E4"/>
<path d="M12.08 14.8799L16 28.1799L19.92 14.8799H16H12.08Z" fill="#5EB9FF"/>
<path d="M15.9999 20.0599L13.2 14.8799H18.7999L15.9999 20.0599Z" fill="#ABDBFF"/>
<path d="M12.08 14.8799L16 28.1799V21.5299L12.08 14.8799Z" fill="#88CAFC"/>
<path d="M19.92 14.8799L16 28.1799V21.5299L19.92 14.8799Z" fill="#88CAFC"/>
<path d="M12.08 14.8801L16 2.56006L19.92 14.8801H12.08Z" fill="#99D1FF"/>
<path d="M16 28.1799L12.08 14.8799L9.69995 15.5099L16 28.1799Z" fill="#47A9F1"/>
<path d="M16 28.1799L19.92 14.8799L22.3 15.5099L16 28.1799Z" fill="#47A9F1"/>
<path d="M16.4199 3.95996L19.9199 14.88L22.2999 15.51L16.4199 3.95996Z" fill="#70C1FF"/>
<path d="M12.08 14.8801L16 1.58008V14.8801H12.08Z" fill="#BFE2F7"/>
<path d="M19.92 14.8801L16 1.58008V14.8801H19.92Z" fill="#ADDCF9"/>
<g style="mix-blend-mode:hue">
<path d="M8.40458 15.5522L15.1142 5.31188C15.4097 4.86091 15.5574 4.63541 15.7445 4.55715C15.9079 4.48876 16.092 4.48876 16.2554 4.55715C16.4424 4.63541 16.5901 4.86091 16.8856 5.31188L23.5953 15.5522V15.5522C23.7343 15.7644 23.8039 15.8706 23.8305 15.9849C23.854 16.086 23.8535 16.1912 23.8289 16.292C23.801 16.4061 23.7303 16.5115 23.589 16.7223L16.8794 26.7285C16.5851 27.1674 16.438 27.3868 16.2528 27.4634C16.0909 27.5303 15.909 27.5303 15.7471 27.4634C15.5619 27.3868 15.4147 27.1674 15.1204 26.7285L8.41083 16.7223C8.26951 16.5115 8.19884 16.4061 8.17098 16.292C8.14637 16.1912 8.14581 16.086 8.16936 15.9849C8.19599 15.8706 8.26554 15.7644 8.40458 15.5522Z" fill="#47F1E7"/>
</g>
<g opacity="0.5" filter="url(#filter0_f_135_8662)">
<path opacity="0.5" d="M13.3573 15.8698C13.4476 15.6261 13.7923 15.6261 13.8826 15.8698L14.0668 16.3679C14.0952 16.4445 14.1556 16.5049 14.2323 16.5333L14.7303 16.7176C14.9741 16.8078 14.9741 17.1526 14.7303 17.2428L14.2323 17.4271C14.1556 17.4554 14.0952 17.5158 14.0668 17.5925L13.8826 18.0905C13.7923 18.3343 13.4476 18.3343 13.3573 18.0905L13.1731 17.5925C13.1447 17.5158 13.0843 17.4554 13.0076 17.4271L12.5096 17.2428C12.2658 17.1526 12.2658 16.8078 12.5096 16.7176L13.0076 16.5333C13.0843 16.5049 13.1447 16.4445 13.1731 16.3679L13.3573 15.8698Z" fill="white"/>
</g>
<path d="M12.01 13.7677C12.0749 13.5923 12.1073 13.5046 12.1546 13.4796C12.1955 13.458 12.2445 13.458 12.2855 13.4796C12.3328 13.5046 12.3652 13.5923 12.4301 13.7677L12.6759 14.4318C12.689 14.4673 12.6956 14.4851 12.7061 14.5C12.7153 14.5132 12.7268 14.5247 12.74 14.5339C12.7549 14.5444 12.7727 14.551 12.8082 14.5642L13.4723 14.8099C13.6477 14.8748 13.7354 14.9072 13.7604 14.9545C13.7821 14.9955 13.7821 15.0445 13.7604 15.0854C13.7354 15.1327 13.6477 15.1652 13.4723 15.2301L12.8082 15.4758C12.7727 15.4889 12.7549 15.4955 12.74 15.506C12.7268 15.5153 12.7153 15.5267 12.7061 15.54C12.6956 15.5548 12.689 15.5726 12.6759 15.6081L12.4301 16.2722C12.3652 16.4476 12.3328 16.5353 12.2855 16.5603C12.2445 16.582 12.1955 16.582 12.1546 16.5603C12.1073 16.5353 12.0749 16.4476 12.01 16.2722L11.7642 15.6081C11.7511 15.5726 11.7445 15.5548 11.734 15.54C11.7248 15.5267 11.7133 15.5153 11.7001 15.506C11.6852 15.4955 11.6674 15.4889 11.6319 15.4758L10.9678 15.2301C10.7924 15.1652 10.7047 15.1327 10.6797 15.0854C10.658 15.0445 10.658 14.9955 10.6797 14.9545C10.7047 14.9072 10.7924 14.8748 10.9678 14.8099L11.6319 14.5642C11.6674 14.551 11.6852 14.5444 11.7001 14.5339C11.7133 14.5247 11.7248 14.5132 11.734 14.5C11.7445 14.4851 11.7511 14.4673 11.7642 14.4318L12.01 13.7677Z" fill="white"/>
</g>
<defs>
<filter id="filter0_f_135_8662" x="8.32678" y="11.687" width="10.5863" height="10.5864" filterUnits="userSpaceOnUse" color-interpolation-filters="sRGB">
<feFlood flood-opacity="0" result="BackgroundImageFix"/>
<feBlend mode="normal" in="SourceGraphic" in2="BackgroundImageFix" result="shape"/>
<feGaussianBlur stdDeviation="2" result="effect1_foregroundBlur_135_8662"/>
</filter>
</defs>
</svg>
