<svg width="21" height="12" viewBox="0 0 21 12" fill="none" xmlns="http://www.w3.org/2000/svg">
<path d="M17.2266 0.839951L10.5719 7.70379L3.91722 0.839951C3.24832 0.150029 2.16779 0.150029 1.4989 0.839951C0.829998 1.52987 0.829998 2.64436 1.4989 3.33428L9.37131 11.4541C10.0402 12.1441 11.1207 12.1441 11.7896 11.4541L19.6621 3.33428C20.331 2.64436 20.331 1.52987 19.6621 0.839951C18.9932 0.16772 17.8955 0.150029 17.2266 0.839951Z" fill="#303757"/>
<path d="M17.2266 0.839951L10.5719 7.70379L3.91722 0.839951C3.24832 0.150029 2.16779 0.150029 1.4989 0.839951C0.829998 1.52987 0.829998 2.64436 1.4989 3.33428L9.37131 11.4541C10.0402 12.1441 11.1207 12.1441 11.7896 11.4541L19.6621 3.33428C20.331 2.64436 20.331 1.52987 19.6621 0.839951C18.9932 0.16772 17.8955 0.150029 17.2266 0.839951Z" fill="black" fill-opacity="0.2"/>
</svg>
