<svg width="17" height="13" viewBox="0 0 17 13" fill="none" xmlns="http://www.w3.org/2000/svg">
<path d="M1.46645 8.02162C4.74614 8.02162 8.0313 8.02162 11.3112 8.02162C10.7266 8.60599 10.1422 9.19037 9.55786 9.775C8.2076 11.1253 10.3086 13.2109 11.6638 11.8557C13.0896 10.4299 14.5154 9.00391 15.9415 7.57813C16.5157 7.00391 16.5006 6.05156 15.9313 5.48724C14.5055 4.06146 13.0795 2.63568 11.6537 1.2099C10.3034 -0.140365 8.21775 1.96042 9.57296 3.31589C10.1524 3.89531 10.7368 4.47969 11.3162 5.05911C8.04119 5.05911 4.76645 5.05911 1.49145 5.05911C-0.42313 5.05911 -0.438234 8.02162 1.46645 8.02162Z" fill="#303757"/>
</svg>
