<svg width="40" height="40" viewBox="0 0 40 40" fill="none" xmlns="http://www.w3.org/2000/svg">
<path d="M20 40C31.0834 40 40 31.0834 40 20C40 8.9166 31.0834 0 20 0C8.9166 0 0 8.9166 0 20C0 31.0834 8.9166 40 20 40Z" fill="url(#paint0_linear_135_9098)"/>
<path d="M25.5371 23.2139C25.5424 20.2973 23.7942 19.2942 20.2949 18.8713C17.7955 18.5334 17.2967 17.8659 17.2988 16.6991C17.3009 15.5323 18.1357 14.784 19.8023 14.787C21.3023 14.7897 22.1348 15.2912 22.5491 16.5419C22.6321 16.7921 22.8818 16.9591 23.1318 16.9596L24.465 16.962C24.7984 16.9626 25.0488 16.713 25.0494 16.3798L25.0496 16.2964C24.7195 14.4624 23.222 13.0431 21.3057 12.8731L21.3093 10.8731C21.3099 10.5397 21.0604 10.2892 20.6439 10.2051L19.3939 10.2028C19.0605 10.2022 18.8101 10.4518 18.7259 10.8684L18.7225 12.785C16.2219 13.1139 14.6357 14.7777 14.6319 16.8611C14.627 19.6111 16.2916 20.6973 19.7909 21.1204C22.1235 21.5412 22.8726 22.0425 22.8702 23.3759C22.8678 24.7093 21.6994 25.6238 20.1162 25.621C17.9494 25.6171 17.2011 24.6989 16.9533 23.4485C16.8707 23.1151 16.621 22.9479 16.371 22.9474L14.9542 22.9449C14.621 22.9443 14.3706 23.1938 14.37 23.5272L14.3698 23.6106C14.6993 25.6944 16.03 27.1968 18.7792 27.6186L18.7756 29.6186C18.775 29.9518 19.0246 30.2022 19.441 30.2864L20.691 30.2886C21.0244 30.2892 21.2749 30.0397 21.359 29.6232L21.3626 27.6232C23.8634 27.2109 25.5331 25.4639 25.5371 23.2139Z" fill="white"/>
<path d="M26.0169 7.80947C26.149 7.31476 26.851 7.31476 26.9831 7.80947L27.3736 9.27228C27.4198 9.44518 27.5548 9.58023 27.7277 9.62639L29.1905 10.0169C29.6852 10.149 29.6852 10.851 29.1905 10.9831L27.7277 11.3736C27.5548 11.4198 27.4198 11.5548 27.3736 11.7277L26.9831 13.1905C26.851 13.6852 26.149 13.6852 26.0169 13.1905L25.6264 11.7277C25.5802 11.5548 25.4452 11.4198 25.2723 11.3736L23.8095 10.9831C23.3148 10.851 23.3148 10.149 23.8095 10.0169L25.2723 9.62639C25.4452 9.58023 25.5802 9.44518 25.6264 9.27228L26.0169 7.80947Z" fill="white"/>
<path d="M9.51692 22.8095C9.64899 22.3148 10.351 22.3148 10.4831 22.8095L10.7683 23.8776C10.8144 24.0505 10.9495 24.1856 11.1224 24.2317L12.1905 24.5169C12.6852 24.649 12.6852 25.351 12.1905 25.4831L11.1224 25.7683C10.9495 25.8144 10.8144 25.9495 10.7683 26.1224L10.4831 27.1905C10.351 27.6852 9.64899 27.6852 9.51692 27.1905L9.23175 26.1224C9.18559 25.9495 9.05054 25.8144 8.87764 25.7683L7.80947 25.4831C7.31476 25.351 7.31476 24.649 7.80947 24.5169L8.87764 24.2317C9.05054 24.1856 9.18559 24.0505 9.23175 23.8776L9.51692 22.8095Z" fill="white"/>
<defs>
<linearGradient id="paint0_linear_135_9098" x1="18" y1="-15.5" x2="22" y2="55.5" gradientUnits="userSpaceOnUse">
<stop offset="0.18168" stop-color="#17BAC5" stop-opacity="0.895833"/>
<stop offset="0.810196" stop-color="#315EFF"/>
</linearGradient>
</defs>
</svg>
