<svg width="34" height="36" viewBox="0 0 34 36" fill="none" xmlns="http://www.w3.org/2000/svg">
<path d="M29.9984 19.7135C30.0712 19.1667 30.1076 18.6016 30.1076 18C30.1076 17.4167 30.0712 16.8333 29.9802 16.2865L33.6758 13.4062C34.0035 13.151 34.0945 12.6589 33.8943 12.2943L30.3989 6.24219C30.1804 5.84115 29.7253 5.71354 29.3248 5.84115L24.9737 7.59115C24.0635 6.89844 23.0986 6.3151 22.0245 5.8776L21.3691 1.2474C21.2963 0.809896 20.9322 0.5 20.4953 0.5H13.5045C13.0676 0.5 12.7217 0.809896 12.6488 1.2474L11.9935 5.8776C10.9193 6.3151 9.93627 6.91667 9.04421 7.59115L4.69317 5.84115C4.29266 5.69531 3.83753 5.84115 3.61907 6.24219L0.141879 12.2943C-0.0765832 12.6771 -0.00376268 13.151 0.360341 13.4062L4.05599 16.2865C3.96497 16.8333 3.89215 17.4349 3.89215 18C3.89215 18.5651 3.92856 19.1667 4.01958 19.7135L0.323931 22.5938C-0.00376265 22.849 -0.0947884 23.3411 0.105469 23.7057L3.60086 29.7578C3.81933 30.1589 4.27446 30.2865 4.67497 30.1589L9.02601 28.4089C9.93627 29.1016 10.9011 29.6849 11.9752 30.1224L12.6306 34.7526C12.7217 35.1901 13.0676 35.5 13.5045 35.5H20.4953C20.9322 35.5 21.2963 35.1901 21.3509 34.7526L22.0063 30.1224C23.0804 29.6849 24.0635 29.1016 24.9555 28.4089L29.3066 30.1589C29.7071 30.3047 30.1622 30.1589 30.3807 29.7578L33.8761 23.7057C34.0945 23.3047 34.0035 22.849 33.6576 22.5938L29.9984 19.7135ZM16.9999 24.5625C13.3953 24.5625 10.446 21.6094 10.446 18C10.446 14.3906 13.3953 11.4375 16.9999 11.4375C20.6045 11.4375 23.5537 14.3906 23.5537 18C23.5537 21.6094 20.6045 24.5625 16.9999 24.5625Z" fill="#0088CC"/>
</svg>
