<svg width="35" height="36" viewBox="0 0 35 36" fill="none" xmlns="http://www.w3.org/2000/svg">
<path d="M3.49989 11H3.99989C5.92489 11 7.49989 12.575 7.49989 14.5V32C7.49989 33.925 5.92489 35.5 3.99989 35.5H3.49989C1.57489 35.5 -0.000106812 33.925 -0.000106812 32V14.5C-0.000106812 12.575 1.57489 11 3.49989 11V11ZM17.4999 0.5C19.4249 0.5 20.9999 2.075 20.9999 4V32C20.9999 33.925 19.4249 35.5 17.4999 35.5C15.5749 35.5 13.9999 33.925 13.9999 32V4C13.9999 2.075 15.5749 0.5 17.4999 0.5ZM31.4999 20.5C33.4249 20.5 34.9999 22.075 34.9999 24V32C34.9999 33.925 33.4249 35.5 31.4999 35.5C29.5749 35.5 27.9999 33.925 27.9999 32V24C27.9999 22.075 29.5749 20.5 31.4999 20.5V20.5Z" fill="#0088CC"/>
</svg>
