<svg width="22" height="29" viewBox="0 0 22 29" fill="none" xmlns="http://www.w3.org/2000/svg">
<path d="M5.42401 0.235135L0.872223 4.83883C0.350154 5.35036 0.709077 6.24139 1.44324 6.24139H4.36356V16.1583C4.36356 17.0659 5.09772 17.8084 5.99502 17.8084C6.89233 17.8084 7.62649 17.0659 7.62649 16.1583V6.24139H10.5468C11.281 6.24139 11.6399 5.35036 11.1178 4.83883L6.56604 0.235135C6.25606 -0.0783784 5.73399 -0.0783784 5.42401 0.235135ZM17.4153 22.7751V12.8582C17.4153 11.9506 16.6811 11.2081 15.7838 11.2081C14.8865 11.2081 14.1524 11.9506 14.1524 12.8582V22.7751H11.232C10.4979 22.7751 10.1389 23.6661 10.661 24.1777L15.2128 28.7649C15.5391 29.0784 16.0449 29.0784 16.3711 28.7649L20.9229 24.1777C21.445 23.6661 21.0698 22.7751 20.3519 22.7751H17.4153Z" fill="#0088CC"/>
</svg>
