<svg width="101" height="100" viewBox="0 0 101 100" fill="none" xmlns="http://www.w3.org/2000/svg">
<mask id="mask0_972_36681" style="mask-type:alpha" maskUnits="userSpaceOnUse" x="20" y="21" width="61" height="56">
<path d="M79.8942 42.2366L52.9737 75.054C52.1255 76.0879 51.7015 76.6049 51.192 76.7929C50.7451 76.9578 50.2541 76.9578 49.8072 76.7929C49.2977 76.6049 48.8737 76.0879 48.0255 75.054L21.105 42.2366C20.6316 41.6595 20.3949 41.371 20.2781 41.0445C20.1748 40.7559 20.1392 40.4475 20.1741 40.143C20.2136 39.7985 20.3784 39.4637 20.708 38.794L25.4003 29.2604C25.5993 28.8561 25.6988 28.654 25.8358 28.483C25.9573 28.3314 26.1003 28.1983 26.2602 28.0879C26.4405 27.9634 26.6493 27.8786 27.0667 27.7089L40.7098 22.1651C40.9262 22.0772 41.0344 22.0332 41.1461 22.0022C41.2453 21.9748 41.3466 21.955 41.4488 21.9431C41.564 21.9297 41.6808 21.9297 41.9144 21.9297H59.0848C59.3184 21.9297 59.4352 21.9297 59.5504 21.9431C59.6526 21.955 59.7539 21.9748 59.8531 22.0022C59.9648 22.0332 60.073 22.0771 60.2894 22.1651L60.2895 22.1651L73.9325 27.7089C74.35 27.8786 74.5587 27.9634 74.739 28.0879C74.8989 28.1983 75.0419 28.3314 75.1634 28.483C75.3004 28.654 75.3999 28.8561 75.5989 29.2604L80.2912 38.794C80.6208 39.4637 80.7856 39.7985 80.8251 40.143C80.86 40.4475 80.8244 40.7559 80.7211 41.0445C80.6043 41.371 80.3676 41.6595 79.8942 42.2366Z" fill="#C4C4C4"/>
</mask>
<g mask="url(#mask0_972_36681)">
<path d="M50.5002 47.1923L44.9181 62.6309L39.3359 47.1923H50.5002Z" fill="#BFE2F7"/>
<path d="M61.6643 47.1923L56.0821 62.6309L50.5 47.1923H61.6643Z" fill="#BFE2F7"/>
<path d="M44.9168 62.632L50.4989 47.1934L56.0811 62.632L44.9168 62.632Z" fill="#7EC6FC"/>
<path d="M56.0822 62.6317L50.5001 78.0703L44.918 62.6317H56.0822Z" fill="#7EC6FC"/>
<path d="M50.5002 47.1934L61.6645 33.1583H39.3359L50.5002 47.1934Z" fill="#75C1FF"/>
<path d="M44.9181 40.1758L50.5002 47.1933H39.3359L44.9181 40.1758Z" fill="#47A9F1"/>
<path d="M56.0821 40.1758L61.6643 47.1933H50.5L56.0821 40.1758Z" fill="#47A9F1"/>
<path d="M82.5973 40.1756L50.5 78.0703L61.6643 47.1931L82.5973 40.1756Z" fill="#47A9F1"/>
<rect x="25.3799" y="19.123" width="50.2392" height="14.0351" fill="#7EC7FF"/>
<path d="M39.3357 47.1934L39.8009 31.7548L50.5 33.1583L39.3357 47.1934Z" fill="#87CBFF"/>
<path d="M39.3346 47.1934L28.1704 30.3513L39.7998 31.7548L39.3346 47.1934Z" fill="#BFE2F7"/>
<path d="M28.1717 30.3516L19.7985 40.644L39.3359 47.1937L28.1717 30.3516Z" fill="#87CBFF"/>
<path d="M28.1718 30.3516L19.7986 40.644L29.5674 43.9188L28.1718 30.3516Z" fill="#75C1FF"/>
<path d="M72.8274 30.3516L81.2006 40.644L61.6631 47.1937L72.8274 30.3516Z" fill="#87CBFF"/>
<path d="M25.3798 27.543L19.7977 40.6424L28.1709 30.35L25.3798 27.543Z" fill="#47A9F1"/>
<path d="M75.6202 27.543L81.2023 40.6424L72.8291 30.35L75.6202 27.543Z" fill="#47A9F1"/>
<path d="M61.6648 47.1934L61.1997 31.7548L72.8291 30.3513L61.6648 47.1934Z" fill="#56B5FC"/>
<path d="M72.8282 30.3516L81.2014 40.644L71.4326 43.9188L72.8282 30.3516Z" fill="#75C1FF"/>
<path d="M18.4027 40.1756L50.5 78.0703L39.3357 47.1931L18.4027 40.1756Z" fill="#47A9F1"/>
<path d="M29.567 43.9183L50.5 78.0703L39.3357 47.1931L29.567 43.9183Z" fill="#9CD4FF"/>
<path d="M61.6643 47.1934L61.1991 31.7548L50.5 33.1583L61.6643 47.1934Z" fill="#87CBFF"/>
<path d="M71.433 43.9183L50.5 78.0703L61.6643 47.1931L71.433 43.9183Z" fill="#9CD4FF"/>
<g style="mix-blend-mode:hue">
<path d="M81.2014 40.6431L50.4996 78.07L19.7979 40.6431L25.9382 28.1675L41.2891 21.9297H59.7101L75.061 28.1675L81.2014 40.6431Z" fill="#00FFA3"/>
</g>
</g>
</svg>
