<svg width="100" height="100" viewBox="0 0 100 100" fill="none" xmlns="http://www.w3.org/2000/svg">
<mask id="mask0_972_36622" style="mask-type:alpha" maskUnits="userSpaceOnUse" x="5" y="8" width="90" height="83">
<path d="M93.6658 37.1806L52.7228 88.1135C51.7917 89.2717 51.3262 89.8509 50.7644 90.0607C50.2718 90.2447 49.7293 90.2447 49.2366 90.0607C48.6748 89.8509 48.2093 89.2717 47.2782 88.1135L6.33522 37.1806C5.74971 36.4523 5.45696 36.0881 5.33439 35.6812C5.2262 35.3221 5.21237 34.9411 5.29425 34.575C5.387 34.1604 5.65258 33.7759 6.18375 33.007L15.6559 19.2956L15.6559 19.2956C15.7947 19.0946 15.8642 18.9941 15.9438 18.9025C16.0145 18.8212 16.0911 18.7452 16.173 18.6752C16.2652 18.5963 16.3663 18.5278 16.5685 18.3906L26.8053 11.4444C27.0095 11.3059 27.1116 11.2366 27.2201 11.1796C27.3164 11.1289 27.4164 11.0856 27.5192 11.0498C27.6349 11.0096 27.7553 10.9824 27.996 10.9279L38.3735 8.58073C38.4869 8.55508 38.5436 8.54225 38.6008 8.53247C38.6517 8.52378 38.7028 8.5169 38.7542 8.51183C38.8119 8.50613 38.87 8.5035 38.9862 8.49825L50.0005 8L61.0148 8.49825C61.131 8.5035 61.1891 8.50613 61.2469 8.51183C61.2982 8.5169 61.3493 8.52378 61.4002 8.53247C61.4574 8.54225 61.5141 8.55508 61.6275 8.58073L72.0051 10.9279C72.2458 10.9824 72.3661 11.0096 72.4818 11.0498C72.5846 11.0856 72.6846 11.1289 72.7809 11.1796C72.8893 11.2366 72.9914 11.3058 73.1955 11.4443L73.1957 11.4444L83.4325 18.3906L83.4327 18.3907C83.6348 18.5278 83.7358 18.5964 83.828 18.6752C83.9099 18.7452 83.9866 18.8212 84.0573 18.9025C84.1368 18.994 84.2062 19.0945 84.345 19.2953L84.3452 19.2956L93.8173 33.007C94.3484 33.7759 94.614 34.1604 94.7068 34.575C94.7887 34.9411 94.7748 35.3221 94.6666 35.6812C94.5441 36.0881 94.2513 36.4523 93.6658 37.1806Z" fill="#C4C4C4"/>
</mask>
<g mask="url(#mask0_972_36622)">
<rect x="13.9688" y="7.48828" width="72.064" height="19.4663" fill="#7EC7FF"/>
<path d="M50.0007 26.9551L64.4135 42.8354H35.5879L50.0007 26.9551Z" fill="#75C1FF"/>
<path d="M42.7943 34.8945L50.0007 42.8347H35.5879L42.7943 34.8945Z" fill="#47A9F1"/>
<path d="M57.2074 34.8945L64.4138 42.8347H50.001L57.2074 34.8945Z" fill="#47A9F1"/>
<path d="M19.6318 22.3457L4.70429 35.1524L11.3959 36.8173L18.0876 38.4822L19.6318 22.3457Z" fill="#7AC6FF"/>
<path d="M35.5879 25.9316L18.0866 38.4823L26.8373 40.6594L35.5879 42.8365V25.9316Z" fill="#7AC6FF"/>
<path d="M64.4141 25.9316L81.9153 38.4823L64.4141 42.8365V25.9316Z" fill="#7AC6FF"/>
<path d="M18.0869 38.4805L27.3523 24.393L19.6311 22.344L18.0869 38.4805Z" fill="#47A9F1"/>
<path d="M81.915 38.4805L72.6497 24.393L80.3708 22.344L81.915 38.4805Z" fill="#47A9F1"/>
<path d="M18.0869 38.4805L35.5882 25.9299L27.3523 24.3931L18.0869 38.4805Z" fill="#9AD4FF"/>
<path d="M81.915 38.4805L64.4138 25.9299L72.6497 24.3931L81.915 38.4805Z" fill="#9AD4FF"/>
<path d="M80.3711 22.3457L95.2987 35.1524L81.9153 38.4822L80.3711 22.3457Z" fill="#7AC6FF"/>
<path d="M16.0286 18.7598L4.70429 35.1524L19.6318 22.3457L16.0286 18.7598Z" fill="#47A9F1"/>
<path d="M83.9744 18.7578L95.2987 35.1504L80.3711 22.3437L83.9744 18.7578Z" fill="#47A9F1"/>
<path d="M95.2984 35.1503L50.001 91.5L64.4138 42.8344L95.2984 35.1503Z" fill="#47A9F1"/>
<path d="M4.70359 35.1503L50.001 91.5L35.5882 42.8344L4.70359 35.1503Z" fill="#47A9F1"/>
<path d="M4.70406 35.1503L47.4277 91.5L18.0874 38.4801L4.70406 35.1503Z" fill="#3AA3F1"/>
<path d="M4.70327 35.1503L46.3975 91.5L10.8802 36.6871L4.70327 35.1503Z" fill="#309FF1"/>
<path d="M26.3231 40.5291L48.457 91.5L35.5884 42.8343L26.3231 40.5291Z" fill="#6CB9F1"/>
<path d="M73.6789 40.5291L51.5449 91.5L64.4135 42.8343L73.6789 40.5291Z" fill="#6CB9F1"/>
<path d="M95.2989 35.1503L52.5752 91.5L81.9156 38.4801L95.2989 35.1503Z" fill="#309FF1"/>
<path d="M35.5885 42.8359L50.0012 99.1855L64.4141 42.8359L35.5885 42.8359Z" fill="#8DCCFC"/>
<path d="M50.0007 42.8363L41.5486 66.1445L35.5879 42.8363H50.0007Z" fill="#BFE2F7"/>
<path d="M50.0013 42.8363L58.4533 66.1445L64.4141 42.8363H50.0013Z" fill="#BFE2F7"/>
<path d="M35.5882 42.834V25.9291L50.001 26.9536L35.5882 42.834Z" fill="#8FCDFF"/>
<path d="M64.4138 42.834V25.9291L50.001 26.9536L64.4138 42.834Z" fill="#8FCDFF"/>
<path d="M42.7943 34.8945L50.0007 26.9543L35.5879 25.9298L42.7943 34.8945Z" fill="#9CD4FF"/>
<path d="M50.0013 42.834L57.2077 34.8938H42.7949L50.0013 42.834Z" fill="#A3D7FF"/>
<path d="M27.3523 31.8203L26.3228 40.5289L18.0869 38.4798L27.3523 31.8203Z" fill="#ADDAFF"/>
<path d="M57.2074 34.8945L64.4138 25.9298L50.001 26.9543L57.2074 34.8945Z" fill="#9CD4FF"/>
<path d="M12.1669 28.7461L10.88 36.6863L4.70312 35.1495L12.1669 28.7461Z" fill="#ADDAFF"/>
<path d="M87.8341 28.7461L89.1209 36.6863L95.2979 35.1495L87.8341 28.7461Z" fill="#ADDAFF"/>
<path d="M18.8584 30.2832L18.0863 38.4795L10.8799 36.6866L18.8584 30.2832Z" fill="#ADDAFF"/>
<path d="M81.1426 30.2832L81.9147 38.4795L89.1211 36.6866L81.1426 30.2832Z" fill="#ADDAFF"/>
<path d="M72.6497 31.8203L73.6791 40.5289L81.915 38.4798L72.6497 31.8203Z" fill="#ADDAFF"/>
<path d="M35.5876 33.8691V42.8339L26.3223 40.5287L35.5876 33.8691Z" fill="#ADDAFF"/>
<path d="M64.4133 33.8691V42.8339L73.6787 40.5287L64.4133 33.8691Z" fill="#ADDAFF"/>
<g style="mix-blend-mode:hue">
<path d="M95.2979 35.1503L50.0005 92.0123L4.70312 35.1503L16.0275 18.7577L27.3518 11.0736L38.6762 8.51227L50.0005 8L61.3249 8.51227L72.6492 11.0736L83.9735 18.7577L95.2979 35.1503Z" fill="#00C2FF"/>
</g>
</g>
<g opacity="0.5" filter="url(#filter0_f_972_36622)">
<path d="M35.8884 36.6529C36.0985 36.0851 36.9015 36.0851 37.1116 36.6529L38.4216 40.1931C38.4877 40.3716 38.6284 40.5123 38.8069 40.5784L42.3471 41.8884C42.9149 42.0985 42.9149 42.9015 42.3471 43.1116L38.8069 44.4216C38.6284 44.4877 38.4877 44.6284 38.4216 44.8069L37.1116 48.3471C36.9015 48.9149 36.0985 48.9149 35.8884 48.3471L34.5784 44.8069C34.5123 44.6284 34.3716 44.4877 34.1931 44.4216L30.6529 43.1116C30.0851 42.9015 30.0851 42.0985 30.6529 41.8884L34.1931 40.5784C34.3716 40.5123 34.5123 40.3716 34.5784 40.1931L35.8884 36.6529Z" fill="white"/>
</g>
<path d="M35.5214 37.6447C35.8237 36.8278 35.9748 36.4193 36.1951 36.3028C36.3858 36.2019 36.6142 36.2019 36.8049 36.3028C37.0252 36.4193 37.1763 36.8278 37.4786 37.6447L38.3592 40.0243C38.4204 40.1898 38.451 40.2726 38.4998 40.342C38.5431 40.4034 38.5966 40.4569 38.658 40.5002C38.7274 40.549 38.8102 40.5796 38.9757 40.6408L41.3553 41.5214C42.1722 41.8237 42.5807 41.9748 42.6972 42.1951C42.7981 42.3858 42.7981 42.6142 42.6972 42.8049C42.5807 43.0252 42.1722 43.1763 41.3553 43.4786L38.9757 44.3592C38.8102 44.4204 38.7274 44.451 38.658 44.4998C38.5966 44.5431 38.5431 44.5966 38.4998 44.658C38.451 44.7274 38.4204 44.8102 38.3592 44.9757L37.4786 47.3553C37.1763 48.1722 37.0252 48.5807 36.8049 48.6972C36.6142 48.7981 36.3858 48.7981 36.1951 48.6972C35.9748 48.5807 35.8237 48.1722 35.5214 47.3553L34.6408 44.9757C34.5796 44.8102 34.549 44.7274 34.5002 44.658C34.4569 44.5966 34.4034 44.5431 34.342 44.4998C34.2726 44.451 34.1898 44.4204 34.0243 44.3592L31.6447 43.4786C30.8278 43.1763 30.4193 43.0252 30.3028 42.8049C30.2019 42.6142 30.2019 42.3858 30.3028 42.1951C30.4193 41.9748 30.8278 41.8237 31.6447 41.5214L34.0243 40.6408C34.1898 40.5796 34.2726 40.549 34.342 40.5002C34.4034 40.4569 34.4569 40.4034 34.5002 40.342C34.549 40.2726 34.5796 40.1898 34.6408 40.0243L35.5214 37.6447Z" fill="white"/>
<defs>
<filter id="filter0_f_972_36622" x="27.6188" y="33.6179" width="17.7623" height="17.7643" filterUnits="userSpaceOnUse" color-interpolation-filters="sRGB">
<feFlood flood-opacity="0" result="BackgroundImageFix"/>
<feBlend mode="normal" in="SourceGraphic" in2="BackgroundImageFix" result="shape"/>
<feGaussianBlur stdDeviation="1.30435" result="effect1_foregroundBlur_972_36622"/>
</filter>
</defs>
</svg>
